<?xml version='1.0' encoding='utf-8'?>
<svg xmlns="http://www.w3.org/2000/svg" enable-background="new 0 0 1920 1250" version="1.1" viewBox="0 0 1920 1250">
	<path d="m991.37 917.58c115.86 0 210.12-100.44 210.12-223.9v-431.86c0-123.46-94.261-223.9-210.12-223.9s-210.12 100.44-210.12 223.9v431.86c0 123.46 94.261 223.9 210.12 223.9zm-161.36-655.76c0-96.565 72.383-175.13 161.36-175.13 88.971 0 161.35 78.561 161.35 175.13v431.86c0 96.565-72.383 175.13-161.35 175.13-88.972 0-161.36-78.561-161.36-175.13v-431.86z"/>
	<path d="m1258.3 471.93c-10.961 0-19.848 8.885-19.848 19.847v278.83c0 47.7-25.066 93.049-70.579 127.69-47.127 35.871-109.81 55.626-176.49 55.626s-129.36-19.755-176.49-55.626c-45.515-34.644-70.581-79.992-70.581-127.69v-278.83c0-10.962-8.885-19.847-19.847-19.847s-19.847 8.885-19.847 19.847v278.83c0 117.78 118.02 214.52 266.92 222.47v179.29h-112.84v39.696h265.38v-39.696h-112.84v-179.29c148.9-7.956 266.92-104.69 266.92-222.47v-278.83c0-10.962-8.886-19.847-19.847-19.847z"/>
</svg>